# xmcd CD database file
#
# Track frame offsets:
#	150
#	37113
#	65639
#	88341
#	115703
#	151679
#	174029
#	201180
#	232517
#	268206
#	287517
#
# Disc length: 4740 seconds
#
# Revision: 0
# Processed by: cddbd v1.5.2PL0 Copyright (c) Steve Scherf et al.
# Submitted via: CDex 1.77
#
DISCID=8c12820b
DTITLE=Musica Jazz (Magazine) - Charles Lloyd and Chico Hamilton Quintet - Freedom Traveler
DYEAR=2017
DGENRE=Jazz
TTITLE0=One for Joan
TTITLE1=Freedom Traveler -  a.Prayer b.Journey
TTITLE2=Tales
TTITLE3=Homeward
TTITLE4=A Rose for Booker
TTITLE5=Transfusion
TTITLE6=Sun Yen Yen
TTITLE7=Voice in the Night
TTITLE8=A Different Journey
TTITLE9=The Vulture
TTITLE10=One Sheridan Square
EXTD=YEAR: 2017
EXTT0=
EXTT1=
EXTT2=
EXTT3=
EXTT4=
EXTT5=
EXTT6=
EXTT7=
EXTT8=
EXTT9=
EXTT10=
PLAYORDER=
